<svg xmlns="http://www.w3.org/2000/svg" width="15.248" height="14.865" viewBox="0 0 15.248 14.865">
  <path id="Path_1" data-name="Path 1" d="M1305.454-107.559a7.808,7.808,0,0,0-3.627,4,6.54,6.54,0,0,0-.513,2.546c0,.143.007.348.023.566.013.18.04.427.078.692a9.817,9.817,0,0,0,2.125,4.5,7.361,7.361,0,0,0,3.737,2.3,9.069,9.069,0,0,0,5.192-.259,10.175,10.175,0,0,0,4.094-3.167,9.708,9.708,0,0,1-9.286-2.3A7.817,7.817,0,0,1,1305.454-107.559Z" transform="translate(-1301.315 107.559)" fill="#0e0e0e"/>
</svg>