<svg id=sun xmlns="http://www.w3.org/2000/svg" width="15.912" height="15.912" viewBox="0 0 15.912 15.912">
  <g id="Group_2" data-name="Group 2" transform="translate(-1300.004 181.599)">
    <rect id="Rectangle_84" data-name="Rectangle 84" width="8" height="8" rx="4" transform="translate(1304.004 -177.599)" fill="#fff"/>
    <g id="Group_1" data-name="Group 1" transform="translate(1300.004 -181.599)">
      <line id="Line_5" data-name="Line 5" y2="2.328" transform="translate(7.956 0)" fill="none" stroke="#fff" stroke-width="2"/>
      <line id="Line_6" data-name="Line 6" y2="2.328" transform="translate(7.956 13.583)" fill="none" stroke="#fff" stroke-width="2"/>
      <line id="Line_7" data-name="Line 7" y2="2.328" transform="translate(15.912 7.956) rotate(90)" fill="none" stroke="#fff" stroke-width="2"/>
      <line id="Line_8" data-name="Line 8" y2="2.328" transform="translate(2.328 7.956) rotate(90)" fill="none" stroke="#fff" stroke-width="2"/>
      <line id="Line_9" data-name="Line 9" y2="2.328" transform="translate(2.402 2.402) rotate(-45)" fill="none" stroke="#fff" stroke-width="2"/>
      <line id="Line_10" data-name="Line 10" y2="2.328" transform="translate(11.863 11.863) rotate(-45)" fill="none" stroke="#fff" stroke-width="2"/>
      <line id="Line_11" data-name="Line 11" y2="2.328" transform="translate(13.51 2.402) rotate(45)" fill="none" stroke="#fff" stroke-width="2"/>
      <line id="Line_12" data-name="Line 12" y2="2.328" transform="translate(4.048 11.863) rotate(45)" fill="none" stroke="#fff" stroke-width="2"/>
    </g>
  </g>
</svg>

<svg id=moon xmlns="http://www.w3.org/2000/svg" width="15.248" height="14.865" viewBox="0 0 15.248 14.865">
  <path id="Path_1" data-name="Path 1" d="M1305.454-107.559a7.808,7.808,0,0,0-3.627,4,6.54,6.54,0,0,0-.513,2.546c0,.143.007.348.023.566.013.18.04.427.078.692a9.817,9.817,0,0,0,2.125,4.5,7.361,7.361,0,0,0,3.737,2.3,9.069,9.069,0,0,0,5.192-.259,10.175,10.175,0,0,0,4.094-3.167,9.708,9.708,0,0,1-9.286-2.3A7.817,7.817,0,0,1,1305.454-107.559Z" transform="translate(-1301.315 107.559)" fill="#0e0e0e"/>
</svg>
